<?xml version="1.0" encoding="UTF-8"?> <!-- Generator: Adobe Illustrator 24.1.2, SVG Export Plug-In . SVG Version: 6.00 Build 0) --> <svg xmlns="http://www.w3.org/2000/svg" xmlns:xlink="http://www.w3.org/1999/xlink" version="1.1" x="0px" y="0px" viewBox="0 0 763 247" style="enable-background:new 0 0 763 247;" xml:space="preserve"> <style type="text/css"> .st0{fill:#FFE647;} .st1{stroke:#000000;stroke-miterlimit:10;} .st2{fill:#FFFF00;} .st3{fill:none;stroke:#000000;stroke-width:6;stroke-miterlimit:10;} .st4{stroke:#000000;stroke-width:3;stroke-miterlimit:10;} </style> <g id="Layer_2"> </g> <g id="Layer_1"> <g> <path d="M7.25,109.06V28.26h63.9v16.5H28.12v14.46h36.9v15.59h-36.9v17.29h43.74v16.95H7.25z"></path> <path d="M81.29,109.06V28.26h20.99l25,40.57l5.78,10.28h0.24c-0.16-6.48-0.24-10.66-0.24-12.54V28.26h20.4v80.79h-20.99l-24.76-40 l-6.01-10.85h-0.24c0.16,6.93,0.24,11.34,0.24,13.22v37.63H81.29z"></path> <path d="M253.18,115.61l-10.61-9.72c-6.21,3.39-13.28,5.08-21.22,5.08c-12.58,0-22.64-3.96-30.18-11.87 c-7.55-7.91-11.32-18-11.32-30.28c0-12.28,3.77-22.37,11.32-30.28c7.54-7.91,17.61-11.87,30.18-11.87 c12.58,0,22.66,3.96,30.24,11.87c7.58,7.91,11.38,18.01,11.38,30.28c0,11.3-3.22,20.75-9.67,28.36l9.55,8.59L253.18,115.61z M221.47,94.71c2.75,0,5.26-0.45,7.54-1.36l-7.66-7.12l9.67-9.6l7.78,7.12c1.96-4.07,2.95-9.04,2.95-14.92 c0-7.68-1.73-13.94-5.19-18.76c-3.46-4.82-8.49-7.23-15.09-7.23c-6.53,0-11.55,2.41-15.09,7.23c-3.54,4.82-5.31,11.07-5.31,18.76 c0,7.68,1.77,13.92,5.31,18.7C209.91,92.32,214.94,94.71,221.47,94.71z"></path> <path d="M305.88,110.53c-11.63,0-20.44-2.6-26.41-7.8c-5.97-5.2-8.96-12.58-8.96-22.15V28.26h20.87v53 c0,8.81,4.83,13.22,14.5,13.22c4.64,0,8.17-1.22,10.61-3.67c2.44-2.45,3.66-5.74,3.66-9.89V28.26h20.87v52.32 c0,9.49-2.97,16.86-8.9,22.09C326.18,107.91,317.44,110.53,305.88,110.53z"></path> <path d="M351.98,109.06V28.26h63.9v16.5h-43.03v14.46h36.9v15.59h-36.9v17.29h43.74v16.95H351.98z M377.21,24.31l5.07-14.69h22.05 l-12.5,14.69H377.21z"></path> <path d="M228.19,236.87c-12.26,0-22.26-3.94-30.01-11.81c-7.74-7.87-11.61-17.91-11.61-30.11s3.81-22.3,11.44-30.28 c7.62-7.98,17.64-11.98,30.06-11.98c9.59,0,17.61,2.37,24.05,7.12c7.31,5.27,11.51,12.69,12.62,22.26h-20.87 c-0.55-3.69-2.24-6.74-5.07-9.15c-2.83-2.41-6.45-3.62-10.85-3.62c-6.6,0-11.61,2.35-15.03,7.06c-3.42,4.71-5.13,10.9-5.13,18.59 c0,7.53,1.85,13.67,5.54,18.42c3.69,4.75,8.61,7.12,14.74,7.12c4.56,0,8.31-1.24,11.26-3.73c2.95-2.49,4.66-5.72,5.13-9.72h20.87 c-0.63,8.14-4.01,15.03-10.14,20.68C248.59,233.82,239.58,236.87,228.19,236.87z"></path> <path d="M272.75,235.06v-80.79h40.32c8.65,0,15.72,2.05,21.22,6.16c5.5,4.11,8.25,9.81,8.25,17.12c0,9.79-4.87,16.31-14.62,19.55 v0.34c7.07,2.26,11.16,7.2,12.26,14.8c0.47,2.64,0.8,5.9,1,9.77c0.2,3.88,0.45,6.78,0.77,8.7c0.31,1.92,0.9,3.03,1.77,3.33v1.02 h-20.28c-0.63-0.38-1.12-1.47-1.47-3.28c-0.35-1.81-0.65-4.37-0.88-7.68c-0.24-3.31-0.51-5.91-0.83-7.8 c-1.1-7.68-5.78-11.53-14.03-11.53h-12.62v30.28H272.75z M293.62,189.97h15.68c4.09,0,7.19-0.87,9.31-2.6 c2.12-1.73,3.18-4.14,3.18-7.23c0-3.01-1.02-5.44-3.07-7.29c-2.04-1.85-5.03-2.77-8.96-2.77h-16.15V189.97z"></path> <path d="M351.86,235.06v-80.79h63.9v16.5h-43.03v14.46h36.9v15.59h-36.9v17.29h43.74v16.95H351.86z"></path> <path d="M425.9,235.06v-80.79h63.9v16.5h-43.03v14.46h36.9v15.59h-36.9v17.29h43.74v16.95H425.9z"></path> <path d="M499.94,235.06v-80.79H528l10.26,35.37l4.83,18.42h0.24c2.2-8.89,3.77-15.03,4.72-18.42l10.38-35.37h28.3v80.79h-19.1 v-40.68l0.35-16.16h-0.24c-1.97,8.06-3.26,13.07-3.89,15.03l-12.14,41.81h-17.21l-12.03-41.7l-3.89-15.14h-0.24 c0.24,8.66,0.35,14.09,0.35,16.27v40.57H499.94z"></path> <path d="M666.77,225.11c-7.62,7.91-17.73,11.87-30.3,11.87c-12.58,0-22.66-3.96-30.24-11.87c-7.59-7.91-11.38-18-11.38-30.28 c0-12.28,3.79-22.37,11.38-30.28c7.58-7.91,17.66-11.87,30.24-11.87c12.57,0,22.67,3.96,30.3,11.87 c7.62,7.91,11.44,18.01,11.44,30.28C678.21,207.11,674.39,217.21,666.77,225.11z M636.59,220.71c6.6,0,11.65-2.39,15.15-7.18 c3.5-4.78,5.25-11.02,5.25-18.7c0-7.68-1.75-13.94-5.25-18.76c-3.5-4.82-8.55-7.23-15.15-7.23c-6.53,0-11.58,2.41-15.15,7.23 c-3.58,4.82-5.36,11.07-5.36,18.76c0,7.61,1.79,13.82,5.36,18.64C625.01,218.3,630.06,220.71,636.59,220.71z"></path> <path d="M719.94,236.98c-11.4,0-20.46-2.35-27.18-7.06c-6.72-4.71-10.2-11.47-10.43-20.28h20.99c0.86,7.68,6.37,11.53,16.51,11.53 c3.77,0,6.97-0.7,9.61-2.09c2.63-1.39,3.95-3.52,3.95-6.38c0-1.96-0.83-3.6-2.48-4.92c-1.65-1.32-3.32-2.24-5.01-2.77 c-1.69-0.53-4.89-1.36-9.61-2.49c-0.24-0.07-0.39-0.13-0.47-0.17c-0.08-0.04-0.2-0.07-0.35-0.11c-0.16-0.04-0.32-0.06-0.47-0.06 c-3.62-0.83-6.58-1.56-8.9-2.2c-2.32-0.64-4.95-1.62-7.9-2.94c-2.95-1.32-5.29-2.77-7.01-4.35c-1.73-1.58-3.2-3.67-4.42-6.27 c-1.22-2.6-1.83-5.52-1.83-8.76c0-8.29,3.08-14.5,9.25-18.64c6.17-4.14,14.25-6.21,24.23-6.21c9.59,0,17.43,2.11,23.52,6.33 c6.09,4.22,9.33,10.4,9.73,18.53h-20.4c-0.39-3.09-1.77-5.48-4.13-7.17c-2.36-1.7-5.5-2.54-9.43-2.54c-3.62,0-6.54,0.7-8.78,2.09 c-2.24,1.39-3.36,3.22-3.36,5.48c0,2.56,1.33,4.43,4.01,5.59c2.67,1.17,7.7,2.54,15.09,4.12c4.64,1.06,8.45,2.09,11.44,3.11 c2.99,1.02,6.03,2.47,9.14,4.35c3.1,1.88,5.42,4.31,6.96,7.29c1.53,2.98,2.3,6.54,2.3,10.68c0,8.21-3.24,14.65-9.73,19.32 C738.28,234.65,730,236.98,719.94,236.98z"></path> </g> <g> <path d="M429.8,72.5V59.28h52.69V72.5H429.8z"></path> <path d="M481.78,72.5V59.28h52.69V72.5H481.78z"></path> <path d="M533.76,72.5V59.28h52.69V72.5H533.76z"></path> </g> </g> </svg> 