<?xml version="1.0" encoding="UTF-8"?> <!-- Generator: Adobe Illustrator 24.1.2, SVG Export Plug-In . SVG Version: 6.00 Build 0) --> <svg xmlns="http://www.w3.org/2000/svg" xmlns:xlink="http://www.w3.org/1999/xlink" version="1.1" x="0px" y="0px" viewBox="0 0 951 231" style="enable-background:new 0 0 951 231;" xml:space="preserve"> <style type="text/css"> .st0{fill:#FFE647;} .st1{stroke:#000000;stroke-miterlimit:10;} .st2{fill:#FFFF00;} .st3{fill:none;stroke:#000000;stroke-width:6;stroke-miterlimit:10;} .st4{stroke:#000000;stroke-width:3;stroke-miterlimit:10;} </style> <g id="Layer_2"> </g> <g id="Layer_1"> <g> <path d="M9.25,93.06V12.26h20.99l25,40.57l5.78,10.28h0.24c-0.16-6.48-0.24-10.66-0.24-12.54V12.26h20.4v80.79H60.42l-24.76-40 l-6.01-10.85h-0.24c0.16,6.93,0.24,11.34,0.24,13.22v37.63H9.25z"></path> <path d="M127.74,94.53c-11.63,0-20.44-2.6-26.41-7.8c-5.97-5.2-8.96-12.58-8.96-22.15V12.26h20.87v53 c0,8.81,4.83,13.22,14.5,13.22c4.64,0,8.17-1.22,10.61-3.67c2.44-2.45,3.66-5.74,3.66-9.89V12.26h20.87v52.32 c0,9.49-2.97,16.86-8.9,22.09C148.03,91.91,139.29,94.53,127.74,94.53z"></path> <path d="M173.83,93.06V12.26h63.9v16.5H194.7v14.46h36.9v15.59h-36.9v17.29h43.74v16.95H173.83z"></path> <path d="M280.88,94.98c-11.4,0-20.46-2.35-27.18-7.06c-6.72-4.71-10.2-11.47-10.43-20.28h20.99c0.86,7.68,6.37,11.53,16.51,11.53 c3.77,0,6.97-0.7,9.61-2.09c2.63-1.39,3.95-3.52,3.95-6.38c0-1.96-0.83-3.6-2.48-4.92c-1.65-1.32-3.32-2.24-5.01-2.77 c-1.69-0.53-4.89-1.36-9.61-2.49c-0.24-0.07-0.39-0.13-0.47-0.17c-0.08-0.04-0.2-0.07-0.35-0.11c-0.16-0.04-0.32-0.06-0.47-0.06 c-3.62-0.83-6.58-1.56-8.9-2.2c-2.32-0.64-4.95-1.62-7.9-2.94c-2.95-1.32-5.29-2.77-7.01-4.35c-1.73-1.58-3.2-3.67-4.42-6.27 c-1.22-2.6-1.83-5.52-1.83-8.76c0-8.29,3.08-14.5,9.25-18.64c6.17-4.14,14.25-6.21,24.23-6.21c9.59,0,17.43,2.11,23.52,6.33 c6.09,4.22,9.33,10.4,9.73,18.53h-20.4c-0.39-3.09-1.77-5.48-4.13-7.17c-2.36-1.7-5.5-2.54-9.43-2.54c-3.62,0-6.54,0.7-8.78,2.09 c-2.24,1.39-3.36,3.22-3.36,5.48c0,2.56,1.33,4.43,4.01,5.59c2.67,1.17,7.7,2.54,15.09,4.12c4.64,1.06,8.45,2.09,11.44,3.11 c2.99,1.02,6.03,2.47,9.14,4.35c3.1,1.88,5.42,4.31,6.96,7.29c1.53,2.98,2.3,6.54,2.3,10.68c0,8.21-3.24,14.65-9.73,19.32 C299.22,92.65,290.95,94.98,280.88,94.98z"></path> <path d="M341.72,93.06V29.21H317.2V12.26h70.15v16.95h-24.76v63.84H341.72z"></path> <path d="M395.13,93.06V12.26h40.32c8.65,0,15.72,2.05,21.22,6.16c5.5,4.11,8.25,9.81,8.25,17.12c0,9.79-4.87,16.31-14.62,19.55 v0.34c7.07,2.26,11.16,7.2,12.26,14.8c0.47,2.64,0.8,5.9,1,9.77c0.2,3.88,0.45,6.78,0.77,8.7c0.31,1.92,0.9,3.03,1.77,3.33v1.02 h-20.28c-0.63-0.38-1.12-1.47-1.47-3.28c-0.35-1.81-0.65-4.37-0.88-7.68c-0.24-3.31-0.51-5.91-0.83-7.8 c-1.1-7.68-5.78-11.53-14.03-11.53H416v30.28H395.13z M416,47.97h15.68c4.09,0,7.19-0.87,9.31-2.6c2.12-1.73,3.18-4.14,3.18-7.23 c0-3.01-1.02-5.44-3.07-7.29c-2.04-1.85-5.03-2.77-8.96-2.77H416V47.97z"></path> <path d="M542.74,83.11c-7.62,7.91-17.73,11.87-30.3,11.87c-12.58,0-22.66-3.96-30.24-11.87c-7.59-7.91-11.38-18-11.38-30.28 c0-12.28,3.79-22.37,11.38-30.28c7.58-7.91,17.66-11.87,30.24-11.87c12.57,0,22.67,3.96,30.3,11.87 c7.62,7.91,11.44,18.01,11.44,30.28C554.17,65.11,550.36,75.21,542.74,83.11z M512.56,78.71c6.6,0,11.65-2.39,15.15-7.18 c3.5-4.78,5.25-11.02,5.25-18.7c0-7.68-1.75-13.94-5.25-18.76c-3.5-4.82-8.55-7.23-15.15-7.23c-6.53,0-11.58,2.41-15.15,7.23 c-3.58,4.82-5.36,11.07-5.36,18.76c0,7.61,1.79,13.82,5.36,18.64C500.98,76.3,506.03,78.71,512.56,78.71z"></path> <path d="M595.91,94.98c-11.4,0-20.46-2.35-27.18-7.06c-6.72-4.71-10.2-11.47-10.43-20.28h20.99c0.86,7.68,6.37,11.53,16.51,11.53 c3.77,0,6.97-0.7,9.61-2.09c2.63-1.39,3.95-3.52,3.95-6.38c0-1.96-0.83-3.6-2.48-4.92c-1.65-1.32-3.32-2.24-5.01-2.77 c-1.69-0.53-4.89-1.36-9.61-2.49c-0.24-0.07-0.39-0.13-0.47-0.17c-0.08-0.04-0.2-0.07-0.35-0.11c-0.16-0.04-0.32-0.06-0.47-0.06 c-3.62-0.83-6.58-1.56-8.9-2.2c-2.32-0.64-4.95-1.62-7.9-2.94c-2.95-1.32-5.29-2.77-7.01-4.35c-1.73-1.58-3.2-3.67-4.42-6.27 c-1.22-2.6-1.83-5.52-1.83-8.76c0-8.29,3.08-14.5,9.25-18.64c6.17-4.14,14.25-6.21,24.23-6.21c9.59,0,17.43,2.11,23.52,6.33 c6.09,4.22,9.33,10.4,9.73,18.53h-20.4c-0.39-3.09-1.77-5.48-4.13-7.17c-2.36-1.7-5.5-2.54-9.43-2.54c-3.62,0-6.54,0.7-8.78,2.09 c-2.24,1.39-3.36,3.22-3.36,5.48c0,2.56,1.33,4.43,4.01,5.59c2.67,1.17,7.7,2.54,15.09,4.12c4.64,1.06,8.45,2.09,11.44,3.11 c2.99,1.02,6.03,2.47,9.14,4.35c3.1,1.88,5.42,4.31,6.96,7.29c1.53,2.98,2.3,6.54,2.3,10.68c0,8.21-3.24,14.65-9.73,19.32 C614.24,92.65,605.97,94.98,595.91,94.98z"></path> <path d="M338.18,219.06v-80.79h37.96c9.9,0,17.57,2.49,22.99,7.46c5.66,5.05,8.49,11.68,8.49,19.89c0,7.84-2.61,14.2-7.84,19.1 c-5.23,4.9-12.13,7.34-20.69,7.34h-19.69v27.01H338.18z M359.41,176.23h15.44c3.69,0,6.58-0.98,8.67-2.94 c2.08-1.96,3.12-4.56,3.12-7.8c0-3.24-1.04-5.78-3.12-7.63c-2.08-1.84-4.97-2.77-8.67-2.77h-15.44V176.23z"></path> <path d="M400.91,219.06l30.3-80.79h21.46l30.42,80.79h-21.93l-4.95-14.58h-29.47l-4.83,14.58H400.91z M431.56,190.13h19.81 L445,170.58l-3.3-11.41h-0.24c-1.34,4.82-2.48,8.63-3.42,11.41L431.56,190.13z"></path> <path d="M520.81,220.98c-11.4,0-20.46-2.35-27.18-7.06c-6.72-4.71-10.2-11.47-10.43-20.28h20.99c0.86,7.68,6.37,11.53,16.51,11.53 c3.77,0,6.97-0.7,9.61-2.09c2.63-1.39,3.95-3.52,3.95-6.38c0-1.96-0.83-3.6-2.48-4.92c-1.65-1.32-3.32-2.24-5.01-2.77 c-1.69-0.53-4.89-1.36-9.61-2.49c-0.24-0.07-0.39-0.13-0.47-0.17c-0.08-0.04-0.2-0.07-0.35-0.11c-0.16-0.04-0.32-0.06-0.47-0.06 c-3.62-0.83-6.58-1.56-8.9-2.2c-2.32-0.64-4.95-1.62-7.9-2.94c-2.95-1.32-5.29-2.77-7.01-4.35c-1.73-1.58-3.2-3.67-4.42-6.27 c-1.22-2.6-1.83-5.52-1.83-8.76c0-8.29,3.08-14.5,9.25-18.64c6.17-4.14,14.25-6.21,24.23-6.21c9.59,0,17.43,2.11,23.52,6.33 c6.09,4.22,9.33,10.4,9.73,18.53h-20.4c-0.39-3.09-1.77-5.48-4.13-7.17c-2.36-1.7-5.5-2.54-9.43-2.54c-3.62,0-6.54,0.7-8.78,2.09 c-2.24,1.39-3.36,3.22-3.36,5.48c0,2.56,1.33,4.43,4.01,5.59c2.67,1.17,7.7,2.54,15.09,4.12c4.64,1.06,8.45,2.09,11.44,3.11 c2.99,1.02,6.03,2.47,9.14,4.35c3.1,1.88,5.42,4.31,6.96,7.29c1.53,2.98,2.3,6.54,2.3,10.68c0,8.21-3.24,14.65-9.73,19.32 C539.14,218.65,530.87,220.98,520.81,220.98z"></path> <path d="M581.64,219.06v-63.84h-24.52v-16.95h70.15v16.95h-24.76v63.84H581.64z"></path> <path d="M700.02,209.11c-7.62,7.91-17.73,11.87-30.3,11.87c-12.58,0-22.66-3.96-30.24-11.87c-7.59-7.91-11.38-18-11.38-30.28 c0-12.28,3.79-22.37,11.38-30.28c7.58-7.91,17.66-11.87,30.24-11.87c12.57,0,22.67,3.96,30.3,11.87 c7.62,7.91,11.44,18.01,11.44,30.28C711.45,191.11,707.64,201.21,700.02,209.11z M669.83,204.71c6.6,0,11.65-2.39,15.15-7.18 c3.5-4.78,5.25-11.02,5.25-18.7c0-7.68-1.75-13.94-5.25-18.76c-3.5-4.82-8.55-7.23-15.15-7.23c-6.53,0-11.58,2.41-15.15,7.23 c-3.58,4.82-5.36,11.07-5.36,18.76c0,7.61,1.79,13.82,5.36,18.64C658.26,202.3,663.31,204.71,669.83,204.71z"></path> <path d="M719.59,219.06v-80.79h40.32c8.65,0,15.72,2.05,21.22,6.16c5.5,4.11,8.25,9.81,8.25,17.12c0,9.79-4.87,16.31-14.62,19.55 v0.34c7.07,2.26,11.16,7.2,12.26,14.8c0.47,2.64,0.8,5.9,1,9.77c0.2,3.88,0.45,6.78,0.77,8.7c0.31,1.92,0.9,3.03,1.77,3.33v1.02 h-20.28c-0.63-0.38-1.12-1.47-1.47-3.28c-0.35-1.81-0.65-4.37-0.88-7.68c-0.24-3.31-0.51-5.91-0.83-7.8 c-1.1-7.68-5.78-11.53-14.03-11.53h-12.62v30.28H719.59z M740.46,173.97h15.68c4.09,0,7.19-0.87,9.31-2.6 c2.12-1.73,3.18-4.14,3.18-7.23c0-3.01-1.02-5.44-3.07-7.29c-2.04-1.85-5.03-2.77-8.96-2.77h-16.15V173.97z"></path> <path d="M798.7,219.06v-80.79h63.9v16.5h-43.03v14.46h36.9v15.59h-36.9v17.29h43.74v16.95H798.7z"></path> <path d="M905.75,220.98c-11.4,0-20.46-2.35-27.18-7.06c-6.72-4.71-10.2-11.47-10.43-20.28h20.99c0.86,7.68,6.37,11.53,16.51,11.53 c3.77,0,6.97-0.7,9.61-2.09c2.63-1.39,3.95-3.52,3.95-6.38c0-1.96-0.83-3.6-2.48-4.92c-1.65-1.32-3.32-2.24-5.01-2.77 c-1.69-0.53-4.89-1.36-9.61-2.49c-0.24-0.07-0.39-0.13-0.47-0.17c-0.08-0.04-0.2-0.07-0.35-0.11c-0.16-0.04-0.32-0.06-0.47-0.06 c-3.62-0.83-6.58-1.56-8.9-2.2c-2.32-0.64-4.95-1.62-7.9-2.94c-2.95-1.32-5.29-2.77-7.01-4.35c-1.73-1.58-3.2-3.67-4.42-6.27 c-1.22-2.6-1.83-5.52-1.83-8.76c0-8.29,3.08-14.5,9.25-18.64c6.17-4.14,14.25-6.21,24.23-6.21c9.59,0,17.43,2.11,23.52,6.33 c6.09,4.22,9.33,10.4,9.73,18.53h-20.4c-0.39-3.09-1.77-5.48-4.13-7.17c-2.36-1.7-5.5-2.54-9.43-2.54c-3.62,0-6.54,0.7-8.78,2.09 c-2.24,1.39-3.36,3.22-3.36,5.48c0,2.56,1.33,4.43,4.01,5.59c2.67,1.17,7.7,2.54,15.09,4.12c4.64,1.06,8.45,2.09,11.44,3.11 c2.99,1.02,6.03,2.47,9.14,4.35c3.1,1.88,5.42,4.31,6.96,7.29c1.53,2.98,2.3,6.54,2.3,10.68c0,8.21-3.24,14.65-9.73,19.32 C924.08,218.65,915.81,220.98,905.75,220.98z"></path> </g> <g> <path d="M657.8,57.5V44.28h52.69V57.5H657.8z"></path> <path d="M709.78,57.5V44.28h52.69V57.5H709.78z"></path> <path d="M761.76,57.5V44.28h52.69V57.5H761.76z"></path> </g> </g> </svg> 